PathFileType	4	(X/Y/Z)	..\data\2014030\dynamic\2014030_C4_03.trc
DataRate	CameraRate	NumFrames	NumMarkers	Units	OrigDataRate	OrigDataStartFrame	OrigNumFrames
100.000000	100.000000	4	52	mm	100.000000	108	174
Frame#	Time	L_IAS			L_IPS			R_IPS			R_IAS			L_FTC			L_FLE			L_FME			L_FAX			L_TTC			L_FAL			L_TAM			L_FCC			L_FM1			L_FM2			L_FM5			R_FTC			R_FLE			R_FME			R_FAX			R_TTC			R_FAL			R_TAM			R_FCC			R_FM1			R_FM2			R_FM5			CV7			TV10			SXS			SJN			L_SIA			L_SRS			L_SAA			L_SAE			L_HLE			L_HME			L_UOA			L_RSP			L_UHE			L_HM2			L_HM5			R_SIA			R_SRS			R_SAA			R_SAE			R_HLE			R_HME			R_UOA			R_RSP			R_UHE			R_HM2			R_HM5			
		X1	Y1	Z1	X2	Y2	Z2	X3	Y3	Z3	X4	Y4	Z4	X5	Y5	Z5	X6	Y6	Z6	X7	Y7	Z7	X8	Y8	Z8	X9	Y9	Z9	X10	Y10	Z10	X11	Y11	Z11	X12	Y12	Z12	X13	Y13	Z13	X14	Y14	Z14	X15	Y15	Z15	X16	Y16	Z16	X17	Y17	Z17	X18	Y18	Z18	X19	Y19	Z19	X20	Y20	Z20	X21	Y21	Z21	X22	Y22	Z22	X23	Y23	Z23	X24	Y24	Z24	X25	Y25	Z25	X26	Y26	Z26	X27	Y27	Z27	X28	Y28	Z28	X29	Y29	Z29	X30	Y30	Z30	X31	Y31	Z31	X32	Y32	Z32	X33	Y33	Z33	X34	Y34	Z34	X35	Y35	Z35	X36	Y36	Z36	X37	Y37	Z37	X38	Y38	Z38	X39	Y39	Z39	X40	Y40	Z40	X41	Y41	Z41	X42	Y42	Z42	X43	Y43	Z43	X44	Y44	Z44	X45	Y45	Z45	X46	Y46	Z46	X47	Y47	Z47	X48	Y48	Z48	X49	Y49	Z49	X50	Y50	Z50	X51	Y51	Z51	X52	Y52	Z52	

109	1.08	1057.486938476563	914.872497558594	-401.5885314941407	858.8567504882815	963.993103027344	-319.0911254882813	868.836120605469	960.5045166015627	-204.8818969726563	1070.406372070313	922.026794433594	-144.6238403320313	974.767761230469	851.247741699219	-448.456024169922	894.016784667969	456.6963806152345	-369.5389099121094	870.663269042969	461.328338623047	-248.921859741211	867.0615234375002	398.1350402832032	-366.9385681152344	917.550231933594	393.4208374023439	-301.9842529296876	748.0322265625001	82.03786468505861	-335.1919555664063	752.2198486328126	99.96855163574222	-244.2488250732422	687.0091552734376	48.76595306396486	-298.9916687011719	866.224548339844	19.67643165588379	-230.8885040283204	883.1497802734377	32.27013397216798	-287.7725830078126	849.568542480469	16.40683174133301	-347.5145263671876	989.2784423828127	839.2617797851565	-86.36476898193361	1134.763061523438	471.018768310547	-144.7377624511719	1209.515014648438	450.6644897460939	-266.0347595214844	1148.017333984375	414.1590270996095	-146.1899108886719	1205.619506835938	431.560028076172	-200.3828125000001	1249.584350585938	86.80995941162111	-175.3700408935547	1267.070068359375	107.587890625	-262.2707519531251	1227.472900390625	20.65194702148438	-226.4358215332032	1398.140380859375	90.94725799560548	-248.2292022705079	1392.242431640625	99.90830230712893	-193.515853881836	1364.554077148438	59.30612182617189	-148.5988159179688	931.3193359375002	1415.772827148438	-269.1449584960938	868.6793212890627	1185.26806640625	-294.3704223632813	1105.833984375	1111.758911132813	-276.2188110351563	1064.346069335938	1331.418823242188	-275.7741699218751	866.5361328125002	1218.371459960938	-390.8024902343751	900.0518798828127	1350.528564453125	-393.2466735839845	956.0843505859377	1355.554443359375	-456.1321105957032	1012.8388671875	1367.390380859375	-466.8431701660157	1037.01904296875	1057.440795898438	-555.9419555664064	986.2434082031252	1040.943481445313	-502.8092041015626	1007.496398925781	1020.990051269531	-539.4818115234376	1184.030395507813	869.923522949219	-478.439910888672	1156.89892578125	857.2974243164065	-545.1912231445314	1241.712158203125	805.0139160156252	-471.9491271972657	1180.421020507813	791.375671386719	-553.9442138671876	855.811706542969	1207.682983398438	-206.9711303710938	891.4047851562502	1330.430541992188	-176.8001861572266	929.601745605469	1332.0078125	-119.9008941650391	979.2307128906252	1337.542236328125	-93.03112030029298	891.6324462890627	1029.39453125	-36.81924057006837	869.0501708984377	1020.184448242188	-113.5033111572266	858.308288574219	1004.517578125	-68.45352172851564	941.5811767578127	786.9241333007815	-68.17911529541017	886.9866333007815	793.549255371094	-10.3305549621582	965.1973876953127	703.4663696289064	-58.4840431213379	885.4160156250002	721.2935791015626	1.207977771759033	
110	1.09	1067.885864257813	913.8294677734377	-401.776092529297	869.541198730469	963.2141113281252	-318.4525756835938	879.9991455078127	959.515319824219	-204.2519226074219	1081.705322265625	920.6914672851565	-144.6883850097657	984.5538330078127	850.5987548828127	-448.5316467285157	900.9705200195315	456.5345153808595	-369.8651428222657	876.950378417969	461.7906188964845	-249.1414031982422	873.143493652344	398.2410888671876	-367.1419372558594	923.7351684570315	392.7425842285157	-302.2762756347657	749.1731567382814	84.10630035400392	-335.6280517578126	753.5870361328126	101.7947158813477	-244.5911254882813	687.5598144531251	51.63660049438478	-299.2197875976563	866.3648071289065	19.75064849853516	-231.0301971435547	883.358337402344	32.4193344116211	-287.9021606445313	849.8413696289065	16.63556480407715	-347.5577392578126	1000.47998046875	837.9368286132815	-86.39119720458986	1144.710815429688	469.5792541503907	-145.9602966308594	1223.062377929688	449.3358459472657	-267.2853393554688	1158.201049804688	412.6513061523439	-147.616195678711	1215.661254882813	430.495574951172	-201.8597564697266	1261.031127929688	85.92840576171876	-177.761962890625	1278.344604492188	106.9153060913086	-264.6503906250001	1239.1337890625	19.80804443359375	-228.8979644775391	1409.595336914063	90.77020263671876	-250.5623474121094	1403.607177734375	99.61853790283206	-195.8650054931641	1376.043212890625	58.93531799316408	-151.1136169433594	941.8335571289065	1414.672485351563	-268.6796569824219	879.4981689453127	1184.135986328125	-293.8888244628907	1116.67236328125	1110.8828125	-276.0142822265626	1075.056518554688	1330.630004882813	-275.4663391113282	877.378845214844	1217.301635742188	-390.3916625976564	910.6564941406252	1349.546630859375	-392.798309326172	966.6384887695315	1354.598876953125	-455.7237243652345	1023.359924316406	1366.482543945313	-466.4726562500001	1047.61328125	1056.66796875	-555.9416503906251	997.0302734375002	1040.05859375	-502.6940002441407	1018.270141601563	1020.096618652344	-539.3830566406251	1195.900756835938	870.1138305664065	-478.6648559570314	1168.49169921875	857.0659790039065	-545.1550903320314	1254.19873046875	805.8128662109377	-472.295623779297	1192.446166992188	791.2976684570315	-553.8169555664064	866.6546020507815	1206.51611328125	-206.5768280029297	902.1021118164065	1329.309448242188	-176.3761749267578	940.1632080078127	1331.03466796875	-119.5386657714844	989.978454589844	1336.517822265625	-92.58975219726564	901.767761230469	1028.50439453125	-36.72056579589844	879.3901977539065	1019.313415527344	-113.4512634277344	868.463073730469	1003.788635253906	-68.38264465332033	950.7487792968752	785.862243652344	-67.89855194091798	896.0935058593752	792.7584228515627	-10.05339145660401	973.742614746094	702.2625732421876	-58.17309188842775	894.136413574219	720.5068359375001	1.504542112350464	
111	1.1	1078.47119140625	912.8296508789065	-401.9344177246095	880.4666137695315	962.5472412109377	-317.8443298339844	891.2635498046877	958.7088012695315	-203.6576843261719	1093.14111328125	919.3969726562502	-144.6984252929688	994.5541992187502	850.0061035156252	-448.5850524902345	908.3408203125002	456.411834716797	-370.2636413574219	883.6050415039065	462.250701904297	-249.4110717773438	879.6173095703127	398.4133911132814	-367.4142150878907	930.3378906250002	392.0287170410157	-302.6847229003907	750.4073486328126	86.42215728759767	-336.1173706054688	755.1668701171876	103.8346252441407	-245.0154266357422	688.1973266601564	54.84057617187501	-299.4575805664063	866.5203247070315	19.81538200378418	-231.2104034423829	883.6500244140627	32.5738868713379	-288.0706176757813	850.1555175781252	16.85313034057618	-347.5907592773438	1011.758605957031	836.7600708007815	-86.43128204345705	1155.137817382813	468.422332763672	-147.2091674804688	1236.565795898438	447.8585510253907	-268.5317382812501	1168.525512695313	411.3513183593751	-149.0505828857422	1225.846435546875	429.334197998047	-203.3519592285157	1270.332275390625	84.75676727294923	-180.1216278076172	1287.539916992188	105.7567138671875	-267.0299377441407	1248.128295898438	18.89415740966797	-231.2654113769532	1418.8642578125	89.16994476318361	-252.768539428711	1412.810302734375	97.99579620361331	-198.0909576416016	1385.05224609375	57.47255706787111	-153.5420227050782	952.4643554687502	1413.691528320313	-268.1160888671876	890.4705200195315	1183.114501953125	-293.3572387695313	1127.708984375	1110.165405273438	-275.7435607910157	1085.890747070313	1330.029907226563	-275.1519775390626	888.3514404296877	1216.3310546875	-389.8829040527345	921.3529052734377	1348.672607421875	-392.2460937500001	977.2681274414065	1353.764526367188	-455.2268066406251	1033.953857421875	1365.695556640625	-466.0390625000001	1058.034790039063	1055.974975585938	-555.8154907226564	1007.626159667969	1039.322387695313	-502.4545288085939	1028.834716796875	1019.320495605469	-539.1560668945314	1207.369140625	870.1707763671877	-478.8452758789064	1179.647705078125	856.7512817382815	-545.0759277343751	1266.172607421875	806.3833618164065	-472.6332092285157	1203.932983398438	791.092224121094	-553.6644897460939	877.634216308594	1205.437255859375	-206.1299743652344	912.9055175781252	1328.279907226563	-175.8685760498047	950.8279418945315	1330.138671875	-119.0947341918946	1000.838134765625	1335.570190429688	-92.06629943847658	912.1724853515627	1027.645629882813	-36.5588607788086	889.9500732421877	1018.474365234375	-113.3247985839844	878.898376464844	1003.069458007813	-68.24150848388673	960.353698730469	784.877868652344	-67.57485961914064	905.612731933594	791.9878540039065	-9.757413864135744	982.788024902344	701.1514892578126	-57.81197357177736	903.338317871094	719.7457885742189	1.817866683006287	
112	1.11	1089.254028320313	911.9009399414065	-402.0508117675782	891.6380004882815	961.9984130859377	-317.2689514160157	902.6316528320315	958.107849121094	-203.1009826660157	1104.723388671875	918.1925048828127	-144.6511688232422	1004.804443359375	849.4677734375002	-448.5971069335939	916.1748657226565	456.3342895507814	-370.7407531738282	890.7351074218752	462.667694091797	-249.7427368164063	886.527282714844	398.6666259765626	-367.7667541503907	937.424987792969	391.2658691406251	-303.2543334960938	751.7601318359376	89.00969696044923	-336.6412353515626	757.0378417968751	106.1063385009766	-245.5243225097657	688.9774169921876	58.43537521362306	-299.6699829101563	866.677673339844	19.87429809570313	-231.4257049560547	884.0088500976565	32.70792770385743	-288.2701416015626	850.470642089844	17.03704643249512	-347.5878295898438	1023.123168945313	835.773620605469	-86.47362518310548	1165.994750976563	467.5449829101564	-148.4642944335938	1249.907836914063	446.2421264648439	-269.7872009277344	1178.986938476563	410.2650451660157	-150.4704895019532	1236.136474609375	428.1041564941407	-204.8808746337891	1277.7646484375	83.33193969726564	-182.392318725586	1294.869995117188	104.1545028686524	-269.3563537597657	1254.734130859375	17.92584991455078	-233.455062866211	1426.197509765625	86.24230194091798	-254.8710174560547	1420.132202148438	95.13440704345705	-200.2119750976563	1391.8984375	55.01193618774415	-155.8686828613282	963.217712402344	1412.856567382813	-267.4547424316407	901.5859985351565	1182.234741210938	-292.7759704589844	1138.951416015625	1109.633422851563	-275.4129943847657	1096.8486328125	1329.635986328125	-274.8223571777344	899.4432373046877	1215.491821289063	-389.2792358398439	932.1419067382815	1347.9345703125	-391.5943603515626	987.9821777343752	1353.078857421875	-454.6442871093751	1044.6318359375	1365.056274414063	-465.5416564941407	1068.28662109375	1055.38671875	-555.5551147460939	1018.036315917969	1038.759033203125	-502.0775451660157	1039.190673828125	1018.685241699219	-538.7926025390626	1218.419311523438	870.0949707031252	-478.9806518554689	1190.3505859375	856.364196777344	-544.9562377929689	1277.615966796875	806.7192382812502	-472.9717712402345	1214.862915039063	790.7706298828127	-553.4989624023439	888.7581787109377	1204.473999023438	-205.6242370605469	923.8294677734377	1327.368774414063	-175.2746276855469	961.617614746094	1329.341064453125	-118.5652923583985	1011.82177734375	1334.723266601563	-91.4629592895508	922.859313964844	1026.8427734375	-36.33213806152344	900.721862792969	1017.701171875	-113.12548828125	889.6223754882815	1002.385559082031	-68.02844238281251	970.3987426757815	783.990905761719	-67.21544647216798	915.5561523437502	791.2603759765627	-9.440809249877931	992.338317871094	700.1524047851564	-57.415584564209	913.0318603515627	719.0306396484376	2.14801025390625	
